<?xml version="1.0" encoding="utf-8"?>
<!-- Generator: Adobe Illustrator 24.3.0, SVG Export Plug-In . SVG Version: 6.00 Build 0)  -->
<svg version="1.2" baseProfile="tiny" id="Layer_1" xmlns="http://www.w3.org/2000/svg" xmlns:xlink="http://www.w3.org/1999/xlink"
	 x="0px" y="0px" viewBox="0 0 68.83 25.43" overflow="visible" xml:space="preserve">
<path fill="none" d="M19.74,17.81v-0.87h-8.35v0.87H8.51v-0.87h0H1.05c0,0,0,0,0,0c0.23,0.18,0.5,0.37,0.82,0.56
	c1.57,0.95,4.09,1.91,7.26,2.71c6.36,1.62,15.36,2.65,25.28,2.65c5.7,0,11.09-0.34,15.85-0.93c4.76-0.59,8.9-1.45,12.08-2.47
	c2.11-0.67,3.79-1.42,4.9-2.13c0.2-0.13,0.38-0.26,0.54-0.38c0,0,0,0,0,0h-7.62h-0.29v0.87h-2.71v-0.87h-2.38v0.87h-2.71v-0.87h-4.4
	c-0.34,0.24-0.71,0.46-1.11,0.63c-0.74,0.32-1.54,0.48-2.39,0.48s-1.64-0.16-2.39-0.48c-0.4-0.17-0.77-0.39-1.11-0.63h-6.42
	c-0.34,0.24-0.71,0.46-1.11,0.63c-0.74,0.32-1.54,0.48-2.39,0.48s-1.64-0.16-2.39-0.48c-0.4-0.17-0.77-0.39-1.11-0.63h-4.64v0.87
	H19.74z"/>
<path d="M62.34,19.46c-3.17,1.01-7.31,1.87-12.08,2.47c-4.76,0.6-10.15,0.93-15.85,0.93c-9.92,0-18.92-1.03-25.28-2.65
	c-3.18-0.8-5.7-1.77-7.26-2.71c-0.32-0.19-0.59-0.38-0.82-0.56c-0.34,0.26-0.6,0.51-0.76,0.71C0.01,18,0,18.15,0,18.23
	c0,0.08,0.01,0.23,0.29,0.58c0.27,0.34,0.8,0.8,1.58,1.27c1.57,0.95,4.09,1.91,7.26,2.71c6.36,1.62,15.36,2.65,25.28,2.65
	c5.7,0,11.09-0.34,15.85-0.93c4.76-0.59,8.9-1.45,12.08-2.47c2.11-0.67,3.79-1.42,4.9-2.13c0.63-0.4,1.07-0.8,1.3-1.09
	c0.27-0.35,0.28-0.5,0.29-0.58c0-0.08-0.01-0.23-0.29-0.58c-0.16-0.2-0.42-0.45-0.76-0.71c-0.16,0.12-0.34,0.25-0.54,0.38
	C66.14,18.04,64.46,18.78,62.34,19.46z"/>
<path d="M30.75,18.05c0.85,0,1.64-0.16,2.39-0.48c0.4-0.17,0.77-0.39,1.11-0.63c0.29-0.2,0.56-0.43,0.81-0.68
	c0.54-0.55,0.96-1.21,1.27-1.98c0.31-0.77,0.47-1.59,0.47-2.47s-0.15-1.7-0.46-2.46c-0.3-0.76-0.73-1.42-1.27-1.97
	c-0.54-0.55-1.18-0.99-1.92-1.31c-0.74-0.32-1.54-0.48-2.4-0.48c-0.85,0-1.64,0.16-2.39,0.48c-0.74,0.32-1.38,0.76-1.92,1.31
	c-0.54,0.55-0.96,1.21-1.27,1.97c-0.31,0.76-0.47,1.58-0.47,2.46s0.16,1.7,0.47,2.46c0.31,0.76,0.74,1.42,1.27,1.98
	c0.25,0.26,0.52,0.48,0.81,0.69c0.34,0.24,0.71,0.46,1.11,0.63C29.11,17.89,29.9,18.05,30.75,18.05z M28.34,9.02
	c0.63-0.74,1.44-1.1,2.41-1.1c0.96,0,1.76,0.37,2.4,1.1c0.64,0.74,0.96,1.67,0.96,2.81c0,1.1-0.32,2.02-0.95,2.76
	s-1.44,1.1-2.41,1.1s-1.78-0.36-2.41-1.09c-0.63-0.73-0.95-1.65-0.95-2.77C27.39,10.7,27.71,9.76,28.34,9.02z"/>
<path d="M44.17,18.05c0.85,0,1.64-0.16,2.39-0.48c0.4-0.17,0.77-0.39,1.11-0.63c0.29-0.2,0.56-0.43,0.81-0.68
	c0.54-0.55,0.96-1.21,1.27-1.98c0.31-0.77,0.47-1.59,0.47-2.47s-0.15-1.7-0.46-2.46c-0.3-0.76-0.73-1.42-1.27-1.97
	c-0.54-0.55-1.18-0.99-1.92-1.31c-0.74-0.32-1.54-0.48-2.4-0.48c-0.85,0-1.64,0.16-2.39,0.48c-0.74,0.32-1.38,0.76-1.92,1.31
	c-0.54,0.55-0.96,1.21-1.27,1.97c-0.31,0.76-0.47,1.58-0.47,2.46s0.16,1.7,0.47,2.46c0.31,0.76,0.74,1.42,1.27,1.98
	c0.25,0.26,0.52,0.48,0.81,0.69c0.34,0.24,0.71,0.46,1.11,0.63C42.53,17.89,43.32,18.05,44.17,18.05z M41.76,9.02
	c0.63-0.74,1.44-1.1,2.41-1.1c0.96,0,1.76,0.37,2.4,1.1c0.64,0.74,0.96,1.67,0.96,2.81c0,1.1-0.32,2.02-0.95,2.76
	c-0.63,0.74-1.44,1.1-2.41,1.1c-0.97,0-1.78-0.36-2.41-1.09c-0.63-0.73-0.95-1.65-0.95-2.77C40.81,10.7,41.12,9.76,41.76,9.02z"/>
<polygon points="54.78,17.81 54.78,16.94 54.78,0.19 52.06,0.65 52.06,16.94 52.06,17.81 "/>
<polygon points="59.86,17.81 59.86,16.94 59.86,5.78 57.15,5.78 57.15,16.94 57.15,17.81 "/>
<polygon points="8.51,16.94 8.51,17.81 11.39,17.81 11.39,16.94 11.39,10.61 19.74,10.61 19.74,16.94 19.74,17.81 22.62,17.81 
	22.62,16.94 22.62,1.01 19.74,1.01 19.74,8.09 11.39,8.09 11.39,1.01 8.51,1.01 "/>
<path d="M56.82,1.68c0,0.46,0.16,0.86,0.49,1.18c0.33,0.32,0.72,0.48,1.19,0.48c0.48,0,0.88-0.16,1.21-0.48
	c0.23-0.23,0.38-0.49,0.44-0.79V1.3c-0.07-0.29-0.22-0.56-0.46-0.8C59.36,0.17,58.97,0,58.51,0h-0.02c-0.44,0-0.83,0.17-1.17,0.5
	C56.98,0.84,56.82,1.23,56.82,1.68z"/>
</svg>
